<svg width="533" height="533" viewBox="0 0 533 533" fill="none" xmlns="http://www.w3.org/2000/svg">
<path fill-rule="evenodd" clip-rule="evenodd" d="M12.2525 256.846C23.5492 257.4 53.2374 257.428 133.83 257.483C259.678 257.566 359.557 258.176 387.316 259.062C389.521 259.145 213.113 259.754 194.997 259.311C166.756 258.591 31.8839 259.2 4.74425 260.031C-2.97055 260.252 -0.077469 261.028 4.95093 261.194C12.8035 261.471 33.8816 261.443 91.674 261.388C132.314 261.36 455.648 261.997 490.984 263.132C510.822 263.769 522.877 264.35 528.387 264.212C533.002 264.101 533.071 263.769 529.076 262.855C526.39 262.246 529.42 261.886 531.349 261.72C534.311 261.443 533.071 260.501 529.352 259.754C524.323 258.729 515.644 258.757 519.777 259.782C520.672 260.003 520.879 260.557 517.71 260.446C508.48 260.114 443.249 257.843 425.546 257.456C236.533 253.247 52.0663 256.32 13.0101 255.296C-0.835204 254.908 5.50205 256.514 12.2525 256.846Z" fill="#25B4F8"/>
</svg>
