<svg width="22" height="26" viewBox="0 0 22 26" fill="none" xmlns="http://www.w3.org/2000/svg">
<path d="M21.1525 8.12549C20.1378 5.66981 18.1267 4.7296 16.4535 4.38937C14.7866 4.05035 13.216 3.31398 11.8893 2.24941C10.5576 1.18075 8.54861 0.236109 6.0118 1.02665C1.20523 2.52457 1.33691 9.28776 1.70812 10.6161C2.07933 11.9445 1.51401 13.2185 0.884511 16.0657C0.255013 18.9129 -0.155181 21.7025 1.48937 22.0247C3.13393 22.3469 4.3663 20.7444 5.85582 18.5248C5.9583 18.3722 6.05701 18.2302 6.15224 18.098C6.80563 17.1911 8.21865 17.8536 7.93943 18.9359C7.89872 19.0936 7.85277 19.2604 7.80099 19.4368C7.04743 22.0014 6.6037 23.9737 7.9032 25.0319C9.20269 26.09 11.0848 23.9906 12.8709 21.6856C14.6571 19.3807 15.2748 18.1313 16.5334 17.5671C17.792 17.0029 23.0753 12.7785 21.1525 8.12549ZM10.3155 4.50194C10.133 4.78506 9.75594 4.86726 9.47242 4.68626C9.37054 4.62215 7.09514 3.23216 5.19269 5.53575C5.01128 5.75534 4.70863 5.81587 4.4621 5.70027C4.41638 5.67884 4.37264 5.65144 4.33197 5.61779C4.07166 5.40284 4.03492 5.01749 4.24987 4.75718C6.33448 2.233 9.00907 2.93402 10.1323 3.65689C10.4162 3.83969 10.4982 4.21799 10.3155 4.50194Z" fill="white"/>
</svg>
